# xmcd
#
# Track frame offsets:
# 150
# 14087
# 31590
# 46970
# 66607
# 82442
# 100640
# 118982
# 137195
# 155037
# 176563
# 195615
# 211164
# 228647
# 246530
# 261241
# 290577
#
# Disc length: 4440 seconds
#
#
# Revision: 0
# Processed by: cddbd v1.5.1PL0 Copyright (c) Steve Scherf et al.
# Submitted via: FreeRIP 2.942 
#
DISCID=0c115611
DTITLE=Klaus Lage - The Essential
DYEAR=2005
DGENRE=Blues
TTITLE0=Komm, halt mich fest
TTITLE1=Mit meinen Augen
TTITLE2=1000 und 1 Nacht
TTITLE3=Wieder zuhaus
TTITLE4=Monopoli
TTITLE5=Eifersucht
TTITLE6=Faust auf Faust
TTITLE7=Stille Wasser
TTITLE8=Nie wieder Kind
TTITLE9=Wenn Du Wärme brauchst
TTITLE10=Steig nicht aus
TTITLE11=Die Liebe bleibt
TTITLE12=Dein Gang
TTITLE13=Sooo lacht nur Sie
TTITLE14=Zurück zu Dir
TTITLE15=Hand in Hand
TTITLE16=Data
EXTD=
EXTT0=
EXTT1=
EXTT2=
EXTT3=
EXTT4=
EXTT5=
EXTT6=
EXTT7=
EXTT8=
EXTT9=
EXTT10=
EXTT11=
EXTT12=
EXTT13=
EXTT14=
EXTT15=
EXTT16=
PLAYORDER=
